<svg xmlns="http://www.w3.org/2000/svg" viewBox="0 0 2487 1999"><path fill-rule="evenodd" fill="#FFF" d="M2460.761 472.19c-14.043 0-23.067-8.215-27.071-24.664l-24.43-105.877h-121.752l-25.266 105.877c-4.013 16.449-13.037 24.664-27.071 24.664-17.248 0-25.867-7.613-25.867-22.859l1.203-9.024 99.861-404.858c5.611-23.255 18.244-34.891 37.899-34.891 19.645 0 32.485 12.435 38.5 37.297l98.658 402.452 1.203 9.024c0 15.246-8.628 22.859-25.867 22.859ZM2348.267 85.379l-49.329 206.941h98.056l-48.727-206.941Zm-393.669 1117.602h-58.353c-14.437 0-26.271-5.415-35.492-16.243-8.028-8.817-12.032-19.447-12.032-31.883V796.318c0-12.488 4.709-24.561 14.137-33.989 9.418-9.418 20.35-14.137 32.786-14.137h43.313c115.593 0 172.651 75.601 172.651 226.793 0 148.795-52.337 224.79-157.01 227.996Zm-8.422-401.851h-19.852c-13.639.404-20.66 8.422-21.055 24.063v300.786c.395 15.641 7.614 23.668 21.657 24.441h16.844c72.987 0 109.486-58.54 109.486-177.24 0-112.34-35.7-170.442-107.08-172.05Zm138.963-328.94c-15.199 0-23.379-9.625-23.379-28.875V74.551l-59.638 372.975c-2.81 16.449-10.828 24.664-23.532 24.664-13.765 0-21.19-8.017-23.992-24.063L1895.42 74.551v368.764c0 19.25-8.27 28.875-24.441 28.875-16.045 0-24.063-9.625-24.063-28.875V51.691c0-34.082 14.034-51.133 42.344-51.133 21.423 0 34.451 13.836 38.869 42.102l50.461 304.97 49.4-304.97c4.408-28.266 17.643-42.102 39.703-42.102 27.673 0 41.509 17.051 41.509 51.133v391.624c0 19.25-8.027 28.875-24.063 28.875Zm-381.638 739.213c-15.64 0-27.672-10.227-36.094-30.681l-133.549-327.857v325.451c0 22.061-9.23 33.087-27.672 33.087-18.047 0-27.071-11.026-27.071-33.087V781.88c0-28.067 11.223-42.11 33.688-42.11 14.833 0 26.469 10.029 34.891 30.079l135.786 330.864V773.458c0-22.258 9.24-33.688 26.639-33.688 18.442 0 27.672 11.43 27.672 33.688v395.233c0 28.481-11.43 42.712-34.29 42.712Zm-95.649-739.213c-19.655 0-29.477-12.031-29.477-35.23V36.652c0-24.063 10.02-36.094 30.078-36.094 20.527 0 29.477 12.031 29.477 36.094V436.96c0 23.199-10.029 35.23-30.078 35.23Zm-255.909 739.213c-14.043 0-23.067-8.216-27.071-24.665l-24.664-105.876H1178.69l-25.266 105.876c-4.014 16.449-13.037 24.665-27.071 24.665-17.248 0-25.868-7.614-25.868-22.86l1.204-9.024 99.861-404.858c5.611-23.255 18.244-34.891 37.899-34.891 20.491 0 32.485 12.436 38.5 37.9l98.658 401.849 1.203 9.024c0 15.246-8.629 22.86-25.867 22.86Zm-112.494-386.811-49.329 206.94h98.056l-48.727-206.94Zm100.462-351.8c-18.351 0-28.274-11.43-28.274-34.29V257.429H1166.57v181.073c0 22.86-9.941 34.29-28.787 34.29-18.856 0-28.274-11.43-28.274-34.29V35.449c0-23.255 9.418-34.891 28.274-34.891 18.846 0 28.787 11.636 28.787 34.891v169.042h145.067V35.449c0-23.255 9.923-34.891 28.274-34.891 18.846 0 28.274 11.636 28.274 34.891v403.053c0 22.86-9.428 34.29-28.274 34.29Zm-365.996 730.189H788.29c-13.9 0-25.33-4.606-34.551-13.836-9.23-9.221-13.836-20.247-13.836-32.565V775.263c0-23.659 9.823-35.493 29.477-35.493 19.87 0 29.477 11.834 29.477 35.493v356.131c.395 11.232 6.843 17.05 17.446 17.445h157.612c22.051 0 33.185 9.024 33.185 27.071 0 18.047-11.134 27.071-33.185 27.071ZM843.975 179.225l70.384 33.086c58.954 27.673 88.431 70.384 88.431 128.135 0 40.512-11.637 72.944-34.891 96.252-23.264 23.668-54.95 35.492-95.048 35.492-56.154 0-95.857-21.854-119.112-65.571-12.031-22.455-18.047-42.712-18.047-60.759 0-20.453 10.02-30.68 30.078-30.68 18.048 0 29.073 12.031 33.087 36.094 7.614 46.124 32.682 69.181 75.683 69.181 19.967 0 36.811-7.219 50.046-21.656 13.234-14.438 19.851-33.087 19.851-55.947 0-36.094-21.054-63.964-63.165-83.618l-62.563-29.477c-52.139-24.458-78.204-61.557-78.204-111.893 0-36.893 12.031-65.665 36.094-86.325C800.662 10.888 829.735.558 863.827.558c39.704 0 71.273 11.636 94.447 34.891 23.254 23.264 34.891 47.928 34.891 73.993 0 19.251-9.625 28.876-28.875 28.876-16.45 0-27.88-10.368-34.29-33.688-9.625-34.891-31.884-52.337-66.775-52.337-44.121 0-65.705 21.262-65.705 64.307 0 26.737 15.173 47.792 46.455 62.625Zm-93.484 1685.966v29.479c0 11.034 5.611 16.645 16.844 16.241h97.454v-84.021H795.7c-40.801-.397-59.252-17.241-56.038-51.333v-247.848c-3.214-34.487 15.237-51.528 56.038-51.133h105.184l3.008-10.227c6.41-22.409 17.84-34.891 34.289-34.891 19.089 0 28.274 6.42 28.274 19.25 0 3.61-1.607 8.422-4.812 14.438l-5.414 11.43h169.643c40.503-.395 58.954 16.646 55.345 51.133v91.439c3.205 34.093-14.842 51.134-53.467 51.134H790.796v37.899h408.468c16.439 0 24.664 7.319 24.664 20.454 0 13.234-8.225 19.851-24.664 19.851H790.796v21.055c-.404 11.233 5.504 16.647 16.844 16.243h371.772c37.692 0 56.547 16.476 56.547 48.727 0 69.783-8.628 115.189-25.039 134.151-18.076 19.645-49.358 29.477-94.673 29.477-24.063 0-36.095-9.23-36.095-27.672 0-18.856 12.831-28.274 38.501-28.274 25.661 0 42.711-4.907 51.134-14.739 8.421-9.822 12.633-35.991 12.633-78.505 0-15.237-7.426-22.059-22.259-22.059H912.915v84.021h104.072c11.627.404 17.239-5.207 16.844-16.241v-29.479c0-15.236 8.629-22.859 24.665-22.859 16.44 0 24.664 7.623 24.664 22.859v40.306c2.801 34.496-13.836 51.133-49.93 49.93H751.694c-35.7.799-52.14-15.838-49.329-49.93v-40.306c0-15.64 8.018-23.461 24.063-23.461 16.035 0 24.063 7.821 24.063 23.461Zm40.305-234.613h322.443c11.627.404 17.239-5.207 17.591-16.844v-21.055H790.796v37.899Zm0-96.853v19.852h340.034v-19.852c-.352-10.745-5.964-17.239-17.591-16.844H807.64c-11.34-.395-17.248 6.099-16.844 16.844ZM612.731 472.19c-14.043 0-23.067-8.215-27.071-24.664l-24.665-105.877H439.478l-25.266 105.877c-4.014 16.449-13.037 24.664-27.071 24.664-17.248 0-25.868-7.613-25.868-22.859l1.204-9.024 99.86-404.858c5.612-23.255 18.245-34.891 37.9-34.891 19.645 0 32.484 12.435 38.5 37.297l98.658 402.452 1.203 9.024c0 15.246-8.629 22.859-25.867 22.859ZM500.237 85.379 450.908 292.32h98.056L500.237 85.379ZM382.88 1431.458c14.444 0 22.067 9.412 22.067 25.867v98.658h63.767c12.426-.394 18.846-6.814 19.251-19.25v-49.329c0-19.25 8.017-28.875 24.305-28.875 15.398 0 23.219 9.625 23.219 28.875v63.165c2.002 35.091-13.979 50.739-49.329 48.727H279.821c-34.497 2.012-50.001-13.636-47.891-48.727v-63.767c0-18.846 6.777-28.273 22.023-28.273 15.236 0 22.859 9.427 22.859 28.273v49.931c.395 12.436 6.815 18.856 19.818 19.25h62.598v-98.658c0-16.455 7.614-25.867 23.652-25.867ZM231.93 472.792c-19.692 0-29.111-11.43-29.111-34.29V257.429H57.239v181.073c0 22.86-9.428 34.29-28.274 34.29-18.856 0-28.274-11.43-28.274-34.29V35.449C.691 12.194 10.109.558 28.965.558c18.846 0 28.274 11.636 28.274 34.891v169.042h145.58V35.449c0-23.255 9.419-34.891 29.111-34.891 18.009 0 27.437 11.636 27.437 34.891v403.053c0 22.86-9.428 34.29-27.437 34.29ZM18.136 1870.4l94.447-17.842 1.805-11.429 2.406-11.159 27.071-181.345c3.835-28.067 11.627-42.11 25.266-42.11 16.036 0 24.063 6.42 24.063 19.251l-1.805 10.828-3.008 18.649-19.25 106.478-17.445 82.415 7.219-1.203 32.484-6.016c12.831 0 19.251 8.028 19.251 24.063 0 9.626-6.42 16.243-19.251 19.852l-150.994 36.696-15.04 2.407c-16.449 0-24.664-8.62-24.664-25.265 0-12.23 5.809-20.248 17.445-24.27Zm30.079-250.65c10.02 0 16.637 6.721 20.455 20.153 2.602 13.441 6.616 39.403 12.31 77.903l5.736 60.759 1.203 18.047c0 14.043-6.939 21.055-23.461 21.055-11.233 0-17.85-5.01-19.852-15.039L27.762 1654.4l-1.805-16.603c0-12.031 7.416-18.047 22.258-18.047Zm51.735-444.442V775.864c0-24.063 10.02-36.094 30.34-36.094 19.384 0 29.216 12.031 29.216 36.094v399.444c0 24.063-10.029 36.095-30.079 36.095-19.654 0-29.477-12.032-29.477-36.095ZM214.851 1565.7c0 14.553-8.422 22.167-25.266 22.167H27.16c-16.449 0-24.664-7.407-24.664-23.462 0-15.236 8.215-22.859 24.664-22.859h60.759v-78.807c0-18.047 8.215-27.07 24.664-27.07 16.036 0 24.063 9.023 24.063 27.07v78.807h52.939c16.844 0 25.266 7.82 25.266 24.154Zm-7.219 101.01c0-15.876 9.221-23.499 27.672-23.499H539.7c18.442 0 27.672 7.623 27.672 23.499 0 14.203-9.23 21.619-27.672 21.619H385.96c-6.16 16.045-15.4 34.891-27.71 56.548h139.34c33.284 0 49.93 16.844 49.93 50.532v146.784c1.203 34.487-14.75 51.932-49.93 52.337h-18.649c-16.045 0-24.063-8.028-24.063-24.063 0-16.045 7.82-24.063 23.461-24.063h9.024c9.625.496 14.635-5.415 15.039-15.04V1808.42c-.404-12.804-6.824-19.027-19.25-19.027h-38.501v165.433c0 16.44-6.824 24.664-20.453 24.664-13.639 0-20.454-8.224-20.454-24.664v-165.433h-49.328v166.034c0 16.44-6.825 25.493-20.454 25.493-13.639 0-20.453-9.053-20.453-25.493v-166.034h-28.876c-12.031.405-18.254 6.717-18.649 19.027v163.25c0 16.44-7.219 24.664-21.656 24.664-14.438 0-21.657-8.224-21.657-24.664v-177.464c0-32.88 16.243-49.329 48.727-49.329h40.907l21.055-52.337 1.203-4.211h-99.259c-18.451 0-27.672-7.416-27.672-21.619Zm176.501-520.879c-12.031-22.455-17.273-42.711-17.273-60.111 0-21.101 9.246-31.328 29.305-31.328 18.047 0 29.072 12.032 33.086 36.095 7.614 46.123 32.682 69.18 75.196 69.18 20.454 0 37.298-7.219 50.533-21.557 13.234-14.537 19.852-33.186 19.852-55.46 0-36.68-21.055-64.549-63.166-84.204l-62.563-29.477c-52.139-24.458-78.205-61.755-78.205-111.199 0-37.587 12.032-66.359 36.095-87.019 24.567-20.651 53.136-30.981 87.228-30.981 39.704 0 71.183 11.636 94.447 34.891 23.254 23.264 34.891 47.929 34.891 73.994 0 19.25-9.625 28.875-28.876 28.875-16.449 0-27.879-11.223-34.289-33.688-9.625-34.891-31.884-52.337-66.775-52.337-44.121 0-66.173 21.262-66.173 63.767 0 27.277 16.424 48.332 46.923 63.165l70.384 33.086c58.954 27.673 88.431 70.384 88.431 128.135 0 40.512-11.637 72.593-34.891 96.252-23.003 23.668-54.95 35.493-95.049 35.493-55.334 0-95.856-21.854-119.111-65.572Zm1860.062-91.439c18.047 0 29.073 12.032 33.086 36.095 7.614 46.123 32.683 69.18 75.197 69.18 20.453 0 37.297-7.219 50.622-21.557 13.144-14.537 19.762-33.186 19.762-55.46 0-36.68-21.055-64.549-63.165-84.204l-62.564-29.477c-52.139-24.458-78.204-61.755-78.204-111.199 0-37.587 12.031-66.359 36.301-87.019 24.63-20.651 52.929-30.981 87.021-30.981 39.704 0 71.183 11.636 94.447 34.891 23.254 23.264 34.891 47.929 34.891 73.994 0 19.25-9.625 28.875-28.875 28.875-16.45 0-27.88-11.223-34.29-33.688-9.625-34.891-31.883-52.337-66.775-52.337-44.121 0-66.172 21.262-66.172 63.767 0 27.277 15.64 48.332 46.922 63.165l70.384 33.086c58.954 27.673 88.431 70.384 88.431 128.135 0 40.512-11.636 72.593-34.891 96.252-22.733 23.668-54.95 35.493-95.048 35.493-56.153 0-95.857-21.854-119.112-65.572-12.031-22.455-18.047-42.711-18.047-60.111 0-21.101 10.02-31.328 30.079-31.328Z"/></svg>
